<?xml version="1.0" standalone="no"?>
<!DOCTYPE svg PUBLIC "-//W3C//DTD SVG 20010904//EN"
 "http://www.w3.org/TR/2001/REC-SVG-20010904/DTD/svg10.dtd">
<svg version="1.0" xmlns="http://www.w3.org/2000/svg"
 width="247.000000pt" height="248.000000pt" viewBox="0 0 247.000000 248.000000"
 preserveAspectRatio="xMidYMid meet">
<metadata>
Created by potrace 1.16, written by Peter Selinger 2001-2019
</metadata>
<g transform="translate(0.000000,248.000000) scale(0.100000,-0.100000)"
fill="#000000" stroke="none">
<path d="M1010 2208 c-118 -68 -312 -180 -430 -248 -118 -67 -228 -135 -243
-150 -52 -49 -52 -55 -47 -607 5 -499 6 -512 26 -540 13 -18 182 -121 460
-283 413 -240 442 -255 489 -255 47 0 74 14 480 249 237 136 438 256 449 265
46 40 46 40 46 584 0 295 -3 524 -9 538 -5 13 -22 36 -37 50 -16 15 -218 136
-449 269 -365 211 -427 243 -470 247 -49 4 -56 1 -265 -119z m709 -165 c227
-131 427 -250 444 -264 l32 -27 3 -513 c2 -488 1 -516 -17 -544 -14 -22 -127
-93 -448 -278 -373 -215 -435 -247 -471 -247 -23 0 -42 4 -42 8 0 5 -6 9 -12
9 -7 0 -200 109 -428 241 -297 172 -420 248 -432 269 -16 26 -18 70 -18 526 0
417 2 503 15 526 18 35 27 41 465 293 450 260 429 249 466 244 17 -2 216 -111
443 -243z"/>
<path d="M915 1708 c-3 -7 -4 -229 -3 -493 l3 -480 45 0 45 0 3 233 2 232 250
0 250 0 2 -232 3 -233 45 0 45 0 0 490 0 490 -45 0 -45 0 -3 -217 -2 -218
-250 0 -250 0 -2 218 -3 217 -43 3 c-28 2 -44 -1 -47 -10z"/>
</g>
</svg>
